<mxfile host="app.diagrams.net" modified="2021-05-08T15:56:27.394Z" agent="5.0 (Windows NT 10.0; Win64; x64) AppleWebKit/537.36 (KHTML, like Gecko) Chrome/90.0.4430.93 Safari/537.36" etag="k3Z48kWU8RbPA1AYYsNQ" version="14.6.11" type="github">
  <diagram name="Page-1" id="aaaa8250-4180-3840-79b5-4cada1eebb92">
    <mxGraphModel dx="1483" dy="1894" grid="1" gridSize="10" guides="1" tooltips="1" connect="1" arrows="1" fold="1" page="1" pageScale="1" pageWidth="850" pageHeight="1100" background="#ffffff" math="0" shadow="0">
      <root>
        <mxCell id="0" />
        <mxCell id="1" parent="0" />
        <mxCell id="yUTB03HRgalIViA0Qku9-1" value="" style="fontColor=#0066CC;verticalAlign=top;verticalLabelPosition=bottom;labelPosition=center;align=center;html=1;outlineConnect=0;fillColor=#CCCCCC;strokeColor=#6881B3;gradientColor=none;gradientDirection=north;strokeWidth=2;shape=mxgraph.networks.security_camera;direction=south;rotation=-90;flipV=0;" vertex="1" parent="1">
          <mxGeometry x="730" y="-170" width="75" height="100" as="geometry" />
        </mxCell>
        <mxCell id="yUTB03HRgalIViA0Qku9-5" value="" style="edgeStyle=orthogonalEdgeStyle;rounded=0;orthogonalLoop=1;jettySize=auto;html=1;" edge="1" parent="1" source="yUTB03HRgalIViA0Qku9-4" target="yUTB03HRgalIViA0Qku9-2">
          <mxGeometry relative="1" as="geometry">
            <mxPoint x="500" y="165" as="sourcePoint" />
            <Array as="points">
              <mxPoint x="659" y="210" />
              <mxPoint x="659" y="210" />
            </Array>
          </mxGeometry>
        </mxCell>
        <mxCell id="yUTB03HRgalIViA0Qku9-2" value="" style="image;html=1;image=img/lib/clip_art/networking/Wireless_Router_N_128x128.png" vertex="1" parent="1">
          <mxGeometry x="560" y="370" width="190" height="90" as="geometry" />
        </mxCell>
        <mxCell id="yUTB03HRgalIViA0Qku9-3" value="" style="fontColor=#0066CC;verticalAlign=top;verticalLabelPosition=bottom;labelPosition=center;align=center;html=1;outlineConnect=0;fillColor=#CCCCCC;strokeColor=#6881B3;gradientColor=none;gradientDirection=north;strokeWidth=2;shape=mxgraph.networks.security_camera;" vertex="1" parent="1">
          <mxGeometry x="717.5" y="40" width="100" height="75" as="geometry" />
        </mxCell>
        <mxCell id="yUTB03HRgalIViA0Qku9-19" value="" style="edgeStyle=none;rounded=0;orthogonalLoop=1;jettySize=auto;html=1;" edge="1" parent="1" source="yUTB03HRgalIViA0Qku9-1" target="yUTB03HRgalIViA0Qku9-4">
          <mxGeometry relative="1" as="geometry">
            <mxPoint x="640" y="-90" as="sourcePoint" />
            <Array as="points">
              <mxPoint x="640" y="-120" />
            </Array>
          </mxGeometry>
        </mxCell>
        <mxCell id="yUTB03HRgalIViA0Qku9-21" value="" style="edgeStyle=none;rounded=0;orthogonalLoop=1;jettySize=auto;html=1;" edge="1" parent="1" source="yUTB03HRgalIViA0Qku9-3" target="yUTB03HRgalIViA0Qku9-4">
          <mxGeometry relative="1" as="geometry">
            <mxPoint x="660" y="100" as="sourcePoint" />
            <Array as="points">
              <mxPoint x="640" y="78" />
            </Array>
          </mxGeometry>
        </mxCell>
        <mxCell id="yUTB03HRgalIViA0Qku9-4" value="" style="points=[];aspect=fixed;html=1;align=center;shadow=0;dashed=0;image;image=img/lib/allied_telesis/security/Router_VPN.svg;" vertex="1" parent="1">
          <mxGeometry x="570" y="165" width="140.91" height="100" as="geometry" />
        </mxCell>
        <mxCell id="yUTB03HRgalIViA0Qku9-9" value="&lt;span style=&quot;font-size: 16px&quot;&gt;Cameras&lt;/span&gt;" style="text;html=1;strokeColor=none;fillColor=none;align=left;verticalAlign=middle;whiteSpace=wrap;rounded=0;" vertex="1" parent="1">
          <mxGeometry x="727.5" y="-30" width="80" height="50" as="geometry" />
        </mxCell>
        <mxCell id="yUTB03HRgalIViA0Qku9-10" value="&lt;span style=&quot;font-size: 16px&quot;&gt;Network&lt;br&gt;Switch&lt;br&gt;&lt;/span&gt;" style="text;html=1;strokeColor=none;fillColor=none;align=left;verticalAlign=middle;whiteSpace=wrap;rounded=0;" vertex="1" parent="1">
          <mxGeometry x="737.5" y="190" width="80" height="50" as="geometry" />
        </mxCell>
        <mxCell id="yUTB03HRgalIViA0Qku9-11" value="&lt;span style=&quot;font-size: 16px&quot;&gt;Router&lt;br&gt;for internet&lt;br&gt;&lt;/span&gt;" style="text;html=1;strokeColor=none;fillColor=none;align=left;verticalAlign=middle;whiteSpace=wrap;rounded=0;" vertex="1" parent="1">
          <mxGeometry x="730" y="390" width="80" height="50" as="geometry" />
        </mxCell>
      </root>
    </mxGraphModel>
  </diagram>
</mxfile>
